<svg width="317" height="64" viewBox="0 0 317 64" fill="none" xmlns="http://www.w3.org/2000/svg">
<circle cx="32.3965" cy="32" r="32" fill="white"/>
<path d="M31.8697 42.592C38.6053 42.592 44.0656 37.1317 44.0656 30.3961C44.0656 23.6605 38.6053 18.2002 31.8697 18.2002C25.1341 18.2002 19.6738 23.6605 19.6738 30.3961C19.6738 37.1317 25.1341 42.592 31.8697 42.592Z" fill="white"/>
<path d="M49.5894 31.199C49.5894 21.4117 41.6553 13.4775 31.8679 13.4775C22.0806 13.4775 14.1465 21.4117 14.1465 31.199C14.1465 34.469 15.0334 37.5321 16.5777 40.1617C19.655 45.4039 25.3506 48.9204 31.8679 48.9204C35.9937 48.9204 39.7879 47.5065 42.8 45.1432L43.6586 45.3302C45.9822 45.8318 48.0677 48.7391 49.5894 50.5639V31.318C49.5894 31.2783 49.5894 31.2387 49.5894 31.2018V31.199ZM37.7562 37.5378C37.8724 38.1697 37.7845 38.6826 37.5408 38.9829C37.368 39.1955 37.1243 39.3003 36.8211 39.3003C36.5179 39.3003 36.2034 39.1955 35.8435 38.9999L33.3017 37.6058L31.9473 36.8634C31.9189 36.8492 31.8906 36.8492 31.8764 36.8634L27.9802 39.0169C27.6203 39.2125 27.2746 39.3173 26.9884 39.3173C26.6852 39.3173 26.4416 39.2125 26.2687 38.9999C26.025 38.6826 25.9372 38.1725 26.0392 37.5548L26.7731 33.0097C26.7873 32.9955 26.7731 32.9643 26.7589 32.9502L23.6108 29.7737C23.5966 29.7595 23.5966 29.7425 23.5824 29.7425H23.5683C23.0639 29.2155 22.8485 28.6884 22.993 28.252C23.1376 27.8157 23.5966 27.4983 24.3163 27.3934L28.6716 26.7162C28.7 26.702 28.7141 26.685 28.7283 26.6709L30.6693 22.531C31.0009 21.8537 31.4174 21.4768 31.8623 21.4768C32.3071 21.4768 32.7407 21.8537 33.0552 22.531L35.0104 26.6567C35.0246 26.685 35.0388 26.702 35.0671 26.702L39.4224 27.3509C40.1279 27.4558 40.6012 27.7561 40.7457 28.2095C40.8902 28.6459 40.6748 29.1871 40.1563 29.7142L37.0081 32.936C36.994 32.9502 36.994 32.9643 36.994 32.9955L37.5068 36.053L37.7562 37.5435V37.5378Z" fill="#F11978"/>
<path d="M81.9079 44.5L74.9305 19.5807H80.0923L84.8626 38.0566L90.06 19.5807H94.2607L99.4938 38.0566L104.264 19.5807H109.426L102.448 44.5H96.8594L92.1604 28.0533L87.4969 44.5H81.9079ZM121.566 19.5807C123.963 19.5807 125.98 20.3876 127.618 22.0015C129.255 23.6153 130.074 25.5969 130.074 27.9465C130.074 30.296 129.255 32.2777 127.618 33.8915C125.98 35.5053 123.963 36.3122 121.566 36.3122H117.187V44.5H112.275V19.5807H121.566ZM121.566 31.72C122.61 31.72 123.476 31.364 124.165 30.652C124.853 29.9163 125.197 29.0144 125.197 27.9465C125.197 26.8548 124.853 25.9529 124.165 25.241C123.476 24.529 122.61 24.173 121.566 24.173H117.187V31.72H121.566ZM141.085 44.9984C138.617 44.9984 136.541 44.4525 134.855 43.3608C133.17 42.2454 131.984 40.7384 131.296 38.8398L135.496 36.3834C136.469 38.9228 138.38 40.1925 141.228 40.1925C142.604 40.1925 143.613 39.9433 144.254 39.4449C144.894 38.9466 145.215 38.3176 145.215 37.5582C145.215 36.6801 144.823 36.0037 144.04 35.5291C143.257 35.0307 141.857 34.4967 139.839 33.9271C138.724 33.5948 137.775 33.2626 136.991 32.9303C136.232 32.5981 135.461 32.159 134.677 31.6132C133.918 31.0436 133.337 30.3316 132.933 29.4772C132.53 28.6229 132.328 27.6261 132.328 26.4869C132.328 24.2323 133.123 22.4405 134.713 21.1115C136.327 19.7587 138.261 19.0823 140.516 19.0823C142.533 19.0823 144.301 19.5807 145.82 20.5775C147.363 21.5505 148.561 22.9152 149.415 24.6714L145.286 27.0565C144.289 24.9206 142.699 23.8526 140.516 23.8526C139.495 23.8526 138.688 24.0899 138.095 24.5646C137.525 25.0155 137.241 25.6088 137.241 26.3445C137.241 27.1277 137.561 27.7685 138.202 28.2669C138.866 28.7415 140.124 29.2636 141.975 29.8332C142.735 30.0706 143.304 30.2604 143.684 30.4028C144.087 30.5215 144.621 30.7232 145.286 31.008C145.974 31.2691 146.496 31.5182 146.852 31.7556C147.232 31.9929 147.659 32.3133 148.134 32.7167C148.609 33.1202 148.965 33.5355 149.202 33.9627C149.463 34.3899 149.677 34.912 149.843 35.5291C150.033 36.1224 150.127 36.775 150.127 37.487C150.127 39.7891 149.285 41.6165 147.6 42.9692C145.939 44.322 143.767 44.9984 141.085 44.9984ZM168.77 42.2929C166.942 44.0965 164.712 44.9984 162.077 44.9984C159.443 44.9984 157.212 44.0965 155.385 42.2929C153.581 40.4655 152.679 38.2346 152.679 35.6003C152.679 32.9659 153.581 30.7469 155.385 28.9433C157.212 27.1158 159.443 26.2021 162.077 26.2021C164.712 26.2021 166.942 27.1158 168.77 28.9433C170.597 30.7469 171.511 32.9659 171.511 35.6003C171.511 38.2346 170.597 40.4655 168.77 42.2929ZM158.624 39.1246C159.55 40.0501 160.701 40.5129 162.077 40.5129C163.454 40.5129 164.605 40.0501 165.53 39.1246C166.456 38.199 166.919 37.0242 166.919 35.6003C166.919 34.1763 166.456 33.0015 165.53 32.076C164.605 31.1504 163.454 30.6876 162.077 30.6876C160.701 30.6876 159.55 31.1504 158.624 32.076C157.722 33.0015 157.271 34.1763 157.271 35.6003C157.271 37.0242 157.722 38.199 158.624 39.1246ZM183.214 44.9984C180.532 44.9984 178.29 44.0965 176.486 42.2929C174.706 40.4892 173.816 38.2583 173.816 35.6003C173.816 32.9422 174.706 30.7113 176.486 28.9077C178.29 27.104 180.532 26.2021 183.214 26.2021C184.947 26.2021 186.525 26.6175 187.949 27.4481C189.373 28.2787 190.453 29.3942 191.188 30.7944L187.237 33.1083C186.881 32.3726 186.335 31.7912 185.599 31.364C184.887 30.9368 184.08 30.7232 183.179 30.7232C181.802 30.7232 180.663 31.186 179.761 32.1116C178.859 33.0134 178.408 34.1763 178.408 35.6003C178.408 37.0005 178.859 38.1634 179.761 39.089C180.663 39.9908 181.802 40.4417 183.179 40.4417C184.104 40.4417 184.923 40.24 185.635 39.8365C186.371 39.4093 186.916 38.8279 187.272 38.0922L191.26 40.3705C190.476 41.7707 189.373 42.898 187.949 43.7524C186.525 44.5831 184.947 44.9984 183.214 44.9984ZM195.967 24.5646C195.207 24.5646 194.543 24.2917 193.973 23.7458C193.427 23.1762 193.154 22.5117 193.154 21.7523C193.154 20.9928 193.427 20.3283 193.973 19.7587C194.543 19.1891 195.207 18.9043 195.967 18.9043C196.75 18.9043 197.414 19.1891 197.96 19.7587C198.53 20.3283 198.815 20.9928 198.815 21.7523C198.815 22.5117 198.53 23.1762 197.96 23.7458C197.414 24.2917 196.75 24.5646 195.967 24.5646ZM193.688 44.5V26.7005H198.281V44.5H193.688ZM216.011 26.7005H220.604V44.5H216.011V42.3997C214.635 44.1321 212.701 44.9984 210.209 44.9984C207.835 44.9984 205.794 44.0965 204.086 42.2929C202.401 40.4655 201.558 38.2346 201.558 35.6003C201.558 32.9659 202.401 30.7469 204.086 28.9433C205.794 27.1158 207.835 26.2021 210.209 26.2021C212.701 26.2021 214.635 27.0684 216.011 28.8009V26.7005ZM207.539 39.2314C208.464 40.1569 209.639 40.6197 211.063 40.6197C212.487 40.6197 213.662 40.1569 214.587 39.2314C215.537 38.282 216.011 37.0717 216.011 35.6003C216.011 34.1288 215.537 32.9303 214.587 32.0048C213.662 31.0555 212.487 30.5808 211.063 30.5808C209.639 30.5808 208.464 31.0555 207.539 32.0048C206.613 32.9303 206.15 34.1288 206.15 35.6003C206.15 37.0717 206.613 38.282 207.539 39.2314ZM224.768 44.5V18.5128H229.36V44.5H224.768ZM248.195 19.5807H253.107V44.5H249.369L238.69 29.2636V44.5H233.777V19.5807H237.515L248.195 34.7815V19.5807ZM259.795 24.5646C259.035 24.5646 258.371 24.2917 257.801 23.7458C257.255 23.1762 256.982 22.5117 256.982 21.7523C256.982 20.9928 257.255 20.3283 257.801 19.7587C258.371 19.1891 259.035 18.9043 259.795 18.9043C260.578 18.9043 261.242 19.1891 261.788 19.7587C262.358 20.3283 262.642 20.9928 262.642 21.7523C262.642 22.5117 262.358 23.1762 261.788 23.7458C261.242 24.2917 260.578 24.5646 259.795 24.5646ZM257.516 44.5V26.7005H262.108V44.5H257.516ZM276.208 26.2021C278.154 26.2021 279.756 26.8548 281.014 28.1601C282.296 29.4654 282.936 31.2691 282.936 33.5711V44.5H278.344V34.1407C278.344 32.9541 278.024 32.0522 277.383 31.4352C276.742 30.7944 275.888 30.474 274.82 30.474C273.633 30.474 272.684 30.8419 271.972 31.5776C271.26 32.3133 270.904 33.4169 270.904 34.8883V44.5H266.312V26.7005H270.904V28.6941C272.019 27.0328 273.787 26.2021 276.208 26.2021ZM289.394 24.5646C288.611 24.5646 287.935 24.2917 287.365 23.7458C286.819 23.1762 286.546 22.5117 286.546 21.7523C286.546 20.9928 286.819 20.3283 287.365 19.7587C287.935 19.1891 288.611 18.9043 289.394 18.9043C290.154 18.9043 290.806 19.1891 291.352 19.7587C291.922 20.3283 292.207 20.9928 292.207 21.7523C292.207 22.5117 291.922 23.1762 291.352 23.7458C290.806 24.2917 290.154 24.5646 289.394 24.5646ZM287.08 44.856V26.7005H291.673V44.856C291.673 47.4666 291.032 49.3652 289.75 50.5518C288.492 51.7622 286.546 52.2843 283.912 52.1182V47.7039C285.004 47.7751 285.799 47.5852 286.297 47.1343C286.819 46.6834 287.08 45.924 287.08 44.856ZM309.389 26.7005H313.981V44.5H309.389V42.3997C308.013 44.1321 306.078 44.9984 303.587 44.9984C301.213 44.9984 299.172 44.0965 297.463 42.2929C295.778 40.4655 294.936 38.2346 294.936 35.6003C294.936 32.9659 295.778 30.7469 297.463 28.9433C299.172 27.1158 301.213 26.2021 303.587 26.2021C306.078 26.2021 308.013 27.0684 309.389 28.8009V26.7005ZM300.917 39.2314C301.842 40.1569 303.017 40.6197 304.441 40.6197C305.865 40.6197 307.04 40.1569 307.965 39.2314C308.914 38.282 309.389 37.0717 309.389 35.6003C309.389 34.1288 308.914 32.9303 307.965 32.0048C307.04 31.0555 305.865 30.5808 304.441 30.5808C303.017 30.5808 301.842 31.0555 300.917 32.0048C299.991 32.9303 299.528 34.1288 299.528 35.6003C299.528 37.0717 299.991 38.282 300.917 39.2314Z" fill="white"/>
</svg>
