<svg width="300" height="300" viewBox="0 0 300 300" fill="none" xmlns="http://www.w3.org/2000/svg">
<circle cx="150" cy="150" r="150" fill="#F11978"/>
<path d="M299.947 149.8C299.947 232.644 232.791 299.814 149.934 299.814C149.243 299.814 148.552 299.814 147.862 299.801C147.384 299.801 146.905 299.787 146.427 299.774C145.657 299.761 144.886 299.734 144.129 299.708C143.811 299.708 143.492 299.681 143.186 299.668C142.549 299.641 141.898 299.615 141.274 299.575C140.809 299.548 140.344 299.522 139.892 299.495C139.72 299.495 139.547 299.469 139.361 299.455C135.137 299.163 130.966 298.698 126.849 298.061C126.623 298.021 126.397 297.994 126.171 297.954C125.653 297.875 125.149 297.782 124.631 297.702C124.325 297.649 124.02 297.596 123.727 297.543C123.608 297.529 123.502 297.503 123.382 297.49C123.076 297.436 122.771 297.383 122.465 297.317C122.16 297.264 121.854 297.197 121.549 297.144C121.243 297.091 120.938 297.025 120.632 296.972C120.021 296.852 119.41 296.719 118.799 296.6C118.494 296.533 118.188 296.467 117.883 296.4C117.006 296.214 116.143 296.015 115.266 295.803C114.629 295.657 113.991 295.497 113.354 295.338C113.101 295.271 112.836 295.205 112.583 295.139C111.494 294.86 110.392 294.567 109.316 294.262C109.05 294.182 108.771 294.102 108.505 294.036C107.018 293.611 105.543 293.159 104.069 292.695C103.803 292.615 103.538 292.522 103.272 292.442C102.98 292.349 102.701 292.256 102.409 292.163C101.506 291.871 100.629 291.552 99.739 291.247C99.4866 291.154 99.2342 291.061 98.9819 290.968C98.7029 290.862 98.4107 290.769 98.1318 290.662C97.7599 290.529 97.4012 290.397 97.0426 290.251C96.8434 290.171 96.6441 290.104 96.4449 290.025C96.2324 289.945 96.0066 289.865 95.794 289.772C95.5018 289.666 95.2229 289.547 94.9439 289.44C94.0407 289.082 93.1508 288.723 92.2476 288.351C91.8757 288.192 91.5038 288.032 91.1319 287.886C90.8264 287.753 90.5341 287.634 90.2419 287.501C89.9231 287.368 89.6176 287.222 89.2989 287.089C89.0996 286.996 88.9004 286.917 88.7011 286.824C88.3425 286.664 87.9839 286.505 87.6252 286.332C87.3862 286.226 87.1471 286.12 86.908 286C86.6955 285.907 86.4829 285.801 86.2704 285.708C85.8587 285.509 85.4336 285.323 85.0219 285.11C84.9289 285.07 84.8492 285.031 84.7562 284.977C84.3843 284.805 84.0257 284.632 83.6537 284.446C83.3748 284.313 83.0959 284.167 82.8169 284.034C82.5513 283.901 82.2989 283.769 82.0333 283.636C81.7676 283.503 81.5153 283.37 81.2496 283.237C80.9707 283.091 80.705 282.958 80.4261 282.812C80.2136 282.693 79.9878 282.587 79.7752 282.467C79.4299 282.294 79.0978 282.108 78.7658 281.922C78.4868 281.776 78.1946 281.617 77.9157 281.457C77.7696 281.378 77.6235 281.298 77.4906 281.218C77.1453 281.032 76.7999 280.833 76.4546 280.634C76.2421 280.514 76.0163 280.382 75.8037 280.262C75.4717 280.076 75.1529 279.89 74.8341 279.704C74.3958 279.452 73.9575 279.199 73.5324 278.947C73.1207 278.708 72.7089 278.456 72.2971 278.203C72.2307 278.163 72.1776 278.137 72.1112 278.097C71.7127 277.858 71.3142 277.606 70.9157 277.366C70.7564 277.26 70.5837 277.167 70.4243 277.061C70.0524 276.835 69.6805 276.596 69.3218 276.357C69.2156 276.291 69.096 276.224 68.9898 276.144C68.6577 275.932 68.3256 275.719 67.9936 275.507C67.7943 275.374 67.5951 275.241 67.3826 275.108C66.9974 274.856 66.6255 274.604 66.2536 274.351C66.1739 274.298 66.0942 274.245 66.0145 274.192C65.6293 273.926 65.2308 273.661 64.8456 273.395C64.7128 273.315 64.5932 273.222 64.4737 273.129C64.1283 272.89 63.7963 272.664 63.4642 272.425C63.2915 272.306 63.1189 272.186 62.9595 272.067C62.6673 271.867 62.3883 271.655 62.0961 271.442C61.857 271.27 61.6312 271.11 61.4054 270.938C61.2327 270.805 61.0468 270.685 60.8741 270.552C60.5686 270.34 60.2764 270.114 59.9709 269.888C59.7584 269.729 59.5591 269.57 59.3466 269.41C59.081 269.211 58.802 268.998 58.5364 268.799C58.3239 268.64 58.1113 268.467 57.8988 268.308C57.6597 268.122 57.4206 267.936 57.1815 267.737C56.969 267.564 56.7565 267.404 56.5307 267.219C56.2385 266.993 55.9596 266.767 55.6673 266.528C55.5478 266.435 55.4282 266.329 55.3087 266.236C54.9766 265.97 54.6446 265.691 54.3125 265.412C54.1664 265.293 54.0203 265.16 53.8609 265.04C53.5421 264.788 53.2366 264.522 52.9311 264.257C52.7717 264.124 52.6256 264.004 52.4662 263.858C52.1873 263.619 51.9084 263.38 51.6294 263.141C51.1911 262.756 50.7528 262.37 50.3144 261.985C50.0488 261.759 49.7964 261.52 49.5308 261.281C49.1456 260.936 48.7471 260.577 48.3619 260.219C48.1095 259.993 47.8572 259.754 47.6048 259.528C47.1798 259.129 46.768 258.744 46.3562 258.346C46.157 258.16 45.971 257.974 45.7851 257.788C45.5194 257.536 45.2538 257.27 44.9881 257.018C44.9483 256.978 44.9217 256.951 44.8819 256.925C44.4834 256.539 44.0982 256.141 43.6997 255.756C43.3012 255.357 42.9028 254.945 42.5043 254.547C42.4113 254.454 42.3316 254.361 42.2386 254.268C41.9066 253.923 41.5612 253.564 41.2292 253.219C40.8174 252.794 40.4189 252.355 40.0072 251.917C38.4 250.177 36.8193 248.41 35.2918 246.591C34.9066 246.139 34.5347 245.687 34.1495 245.223C29.8194 239.976 25.8346 234.411 22.2483 228.593C22.0491 228.287 21.8631 227.982 21.6772 227.663C21.0928 226.693 20.5083 225.724 19.9372 224.741C19.645 224.223 19.3395 223.705 19.0472 223.187C18.7949 222.735 18.5425 222.284 18.2901 221.819C18.2503 221.739 18.1971 221.659 18.1573 221.58C17.9182 221.141 17.6924 220.716 17.4533 220.278C17.4002 220.185 17.3603 220.092 17.3072 219.999C17.0283 219.481 16.7626 218.963 16.497 218.445C16.218 217.914 15.9524 217.382 15.6867 216.838C15.4742 216.413 15.2617 215.988 15.0625 215.563C14.7437 214.912 14.4249 214.261 14.1194 213.597C13.9069 213.145 13.6943 212.68 13.4818 212.229C13.4287 212.122 13.3756 212.003 13.3357 211.897C13.0966 211.379 12.8708 210.847 12.6317 210.329C12.5122 210.05 12.3927 209.785 12.2731 209.506C12.1403 209.213 12.0207 208.921 11.8879 208.616C11.5426 207.806 11.2105 206.995 10.8784 206.172C10.7589 205.893 10.6526 205.614 10.5464 205.335C10.4268 205.056 10.3206 204.777 10.2143 204.498C9.98851 203.94 9.77599 203.369 9.56346 202.811C9.4572 202.532 9.35094 202.24 9.24468 201.961C9.03216 201.39 8.83292 200.832 8.6204 200.261C8.52742 199.982 8.42116 199.69 8.3149 199.411C8.22192 199.119 8.11566 198.84 8.02268 198.548C7.92971 198.269 7.82344 197.976 7.73047 197.684C7.63749 197.392 7.54451 197.113 7.43825 196.821C7.34527 196.529 7.25229 196.25 7.15932 195.957C6.88038 195.094 6.61473 194.217 6.34908 193.354C6.2561 193.062 6.1764 192.77 6.08343 192.477C5.91075 191.893 5.73808 191.309 5.57869 190.724C5.4193 190.14 5.24662 189.555 5.08723 188.958C5.00754 188.665 4.92784 188.373 4.84815 188.068C4.76845 187.775 4.68875 187.483 4.62234 187.178C4.54265 186.885 4.47623 186.593 4.39654 186.288C4.25043 185.69 4.10432 185.106 3.95821 184.508C3.38706 182.13 2.88232 179.713 2.444 177.295C2.21819 176.087 2.00567 174.865 1.81971 173.643C1.81971 173.643 1.81971 173.643 1.81971 173.629C1.72674 173.018 1.63376 172.421 1.54078 171.81C1.54078 171.81 1.54078 171.783 1.54078 171.77C1.4478 171.172 1.36811 170.561 1.28841 169.963C1.07589 168.423 0.903216 166.882 0.743825 165.315C0.71726 165.009 0.677412 164.69 0.650847 164.385C0.624282 164.066 0.597717 163.76 0.557869 163.455C0.531304 163.136 0.504738 162.831 0.478173 162.512C0.451608 162.193 0.425043 161.888 0.398478 161.569C0.371912 161.25 0.345347 160.945 0.332065 160.626C0.3055 160.307 0.292217 160.001 0.265652 159.683C0.225804 159.098 0.185956 158.501 0.159391 157.916C0.132826 157.411 0.106261 156.907 0.0929781 156.402C0.0929781 156.15 0.0664129 155.897 0.0664129 155.658C0.0531304 155.113 0.0265652 154.556 0.0132826 154.011C0.0132826 153.719 0 153.427 0 153.134C0 153.108 0 153.081 0 153.068C17.8916 169.897 38.1609 177.548 47.8173 181.068C57.5402 184.614 66.7981 186.846 75.7373 188.041C86.1509 189.422 96.1261 189.383 105.862 188.307C122.306 186.5 138.059 181.772 154.131 176.047C160.626 173.736 167.175 171.265 173.843 168.755C185.199 164.491 196.888 160.121 209.227 156.309C216.094 154.184 223.161 152.231 230.48 150.558C244.758 147.29 260.007 145.072 276.663 144.726C283.411 144.58 289.946 144.753 296.281 145.205C297.503 145.284 298.712 145.391 299.908 145.497C299.908 145.537 299.908 145.577 299.908 145.616C299.908 145.935 299.921 146.254 299.934 146.586C299.934 146.945 299.947 147.317 299.947 147.675C299.947 147.954 299.947 148.22 299.947 148.499C299.947 148.95 299.947 149.415 299.947 149.867V149.8Z" fill="url(#paint0_linear_356_464)"/>
<path d="M299.921 145.63C298.712 145.524 297.503 145.431 296.295 145.338C289.959 144.886 283.424 144.714 276.676 144.86C260.02 145.205 244.772 147.423 230.493 150.691C223.174 152.365 216.108 154.317 209.241 156.442C196.901 160.254 185.212 164.624 173.856 168.888C167.188 171.399 160.64 173.869 154.144 176.18C138.073 181.892 122.319 186.634 105.876 188.44C96.1394 189.516 86.1642 189.556 75.7506 188.174C66.8114 186.992 57.5535 184.747 47.8306 181.201C38.1742 177.681 17.9049 170.017 0.0132905 153.201C0.0132905 153.108 0.0132905 153.015 0.0132905 152.909C0.0132905 152.471 7.87856e-06 152.032 7.87856e-06 151.607C7.87856e-06 151.076 7.87856e-06 150.545 7.87856e-06 150.014C-0.0265573 67.1568 67.1302 0 149.987 0C150.691 0 151.408 0 152.112 0.0132826C152.537 0.0132826 152.949 0.0265652 153.374 0.0398478C153.507 0.0398478 153.653 0.0398478 153.786 0.0398478C154.065 0.0398478 154.33 0.0531303 154.596 0.0664129C154.676 0.0664129 154.742 0.0664129 154.822 0.0664129C155.141 0.0664129 155.459 0.0796955 155.778 0.106261C156.097 0.106261 156.416 0.132826 156.735 0.146108C157.053 0.159391 157.372 0.172674 157.691 0.185956C158.328 0.212521 158.966 0.252369 159.604 0.292217C159.922 0.305499 160.241 0.332065 160.56 0.35863C160.958 0.385195 161.357 0.41176 161.755 0.451608C161.994 0.464891 162.22 0.491456 162.459 0.504738C162.712 0.518021 162.951 0.544586 163.203 0.571151C163.509 0.597716 163.814 0.624282 164.106 0.650847C164.279 0.664129 164.452 0.677412 164.611 0.703977C164.837 0.730542 165.076 0.743825 165.302 0.77039C165.926 0.836803 166.564 0.903216 167.188 0.969629C167.507 1.00948 167.812 1.03604 168.131 1.07589C168.45 1.11574 168.755 1.15559 169.074 1.19543C169.38 1.23528 169.698 1.27513 170.017 1.31498C170.336 1.35482 170.641 1.39467 170.947 1.4478C171.266 1.48765 171.571 1.54078 171.877 1.58063C172.674 1.70017 173.457 1.81971 174.241 1.95254C174.546 2.00567 174.852 2.04552 175.158 2.09865C175.41 2.1385 175.662 2.17834 175.915 2.23147C176.114 2.27132 176.326 2.29789 176.526 2.33774C176.831 2.39087 177.137 2.444 177.442 2.51041C177.748 2.56354 178.053 2.62995 178.359 2.68308C178.97 2.80263 179.581 2.92217 180.192 3.04171C180.497 3.10813 180.803 3.16126 181.108 3.22767C181.414 3.29408 181.719 3.36049 182.025 3.42691C182.33 3.49332 182.636 3.55973 182.928 3.62615C183.233 3.69256 183.539 3.75897 183.831 3.83867C184.057 3.8918 184.283 3.94493 184.508 3.99806C185.491 4.22386 186.461 4.46295 187.444 4.71532C187.749 4.79501 188.042 4.87471 188.347 4.9544C188.653 5.0341 188.945 5.1138 189.25 5.19349C193.448 6.33579 197.579 7.65077 201.63 9.12514C202.161 9.32438 202.692 9.52361 203.224 9.72285C204.671 10.2674 206.093 10.8386 207.514 11.423C207.886 11.5824 208.258 11.7418 208.643 11.9012C208.988 12.0473 209.32 12.1934 209.666 12.3395C209.865 12.4192 210.064 12.5122 210.263 12.5919C210.595 12.738 210.941 12.8841 211.273 13.0435C211.552 13.163 211.831 13.2959 212.11 13.4154C212.349 13.5217 212.575 13.6279 212.814 13.7342C213.093 13.8537 213.358 13.9866 213.624 14.1061C214.036 14.2921 214.447 14.4913 214.859 14.6905C214.939 14.7304 215.019 14.757 215.098 14.7968C215.483 14.9828 215.869 15.1687 216.254 15.3547C216.48 15.4609 216.705 15.5805 216.931 15.6867C217.223 15.8328 217.516 15.979 217.808 16.1251C218.047 16.2446 218.273 16.3641 218.512 16.4837C218.751 16.6032 219.003 16.7361 219.242 16.8556C219.588 17.0283 219.933 17.2142 220.265 17.4002C220.398 17.4666 220.518 17.533 220.65 17.6127C221.009 17.7987 221.368 17.9979 221.726 18.1971C221.965 18.33 222.218 18.4628 222.457 18.5956C222.749 18.755 223.041 18.9144 223.333 19.0871C223.493 19.1668 223.652 19.2598 223.798 19.3527C224.197 19.5785 224.595 19.8043 224.994 20.0301C225.445 20.2825 225.884 20.5482 226.322 20.8138C226.813 21.0927 227.292 21.385 227.77 21.6772C228.221 21.9561 228.673 22.2218 229.125 22.514C229.218 22.5671 229.297 22.6202 229.39 22.6734C229.842 22.9523 230.294 23.2445 230.745 23.5367C230.785 23.5633 230.825 23.5899 230.865 23.6164C231.144 23.7891 231.409 23.9618 231.675 24.1477C231.967 24.3337 232.273 24.5329 232.565 24.7322C233.016 25.0244 233.455 25.3166 233.893 25.6221C234.318 25.901 234.73 26.1933 235.155 26.4855C235.474 26.698 235.793 26.9238 236.111 27.1496C236.404 27.3488 236.682 27.5481 236.975 27.7606C237.413 28.0794 237.851 28.3849 238.29 28.717C238.675 28.9959 239.047 29.2748 239.432 29.5538C243.058 32.2501 246.551 35.0926 249.912 38.1077C250.629 38.7453 251.346 39.3962 252.05 40.047C252.449 40.4189 252.861 40.7908 253.259 41.176C253.299 41.2026 253.326 41.2424 253.352 41.269C253.737 41.6409 254.122 41.9995 254.508 42.3714C254.548 42.4113 254.587 42.4511 254.627 42.491C254.893 42.7434 255.159 43.009 255.424 43.2747C256.009 43.8458 256.58 44.417 257.138 44.9881C257.523 45.3866 257.921 45.7851 258.307 46.1968C258.32 46.2101 258.333 46.2234 258.346 46.25C258.665 46.582 258.984 46.9141 259.303 47.2594C259.422 47.379 259.529 47.4985 259.635 47.6181C259.821 47.8173 259.993 48.0033 260.179 48.2025C260.458 48.508 260.737 48.8002 261.003 49.1057C261.029 49.1323 261.056 49.1589 261.083 49.1987C261.454 49.5972 261.813 50.0089 262.172 50.4207C262.225 50.4871 262.291 50.5535 262.344 50.6199C262.69 51.0051 263.035 51.4036 263.367 51.7888C263.434 51.8552 263.487 51.9216 263.54 51.988C263.832 52.3201 264.124 52.6655 264.403 52.9975C264.563 53.1835 264.722 53.3694 264.868 53.5554C265.12 53.8476 265.36 54.1398 265.599 54.432C265.944 54.8438 266.276 55.2556 266.608 55.6806C266.874 56.0127 267.139 56.3447 267.405 56.6635C267.511 56.7963 267.618 56.9292 267.724 57.062C267.923 57.3144 268.122 57.5667 268.322 57.8191C268.534 58.0847 268.733 58.3504 268.946 58.6161C269.079 58.7887 269.225 58.9614 269.344 59.1474C269.583 59.4529 269.809 59.7584 270.035 60.0639C270.141 60.21 270.248 60.3561 270.367 60.5022C270.646 60.8741 270.925 61.246 271.191 61.6312C271.244 61.6976 271.297 61.7773 271.35 61.8437C271.602 62.2024 271.868 62.561 272.12 62.9196C272.32 63.1985 272.506 63.4642 272.705 63.7431C272.824 63.9158 272.944 64.0885 273.063 64.2612C273.249 64.5135 273.422 64.7792 273.595 65.0315C273.767 65.2839 273.94 65.5363 274.113 65.7754C274.365 66.1473 274.604 66.5059 274.857 66.8778C274.896 66.9309 274.923 66.9841 274.963 67.0372C275.189 67.3693 275.401 67.6881 275.614 68.0201C275.826 68.3389 276.039 68.6577 276.238 68.9898C276.331 69.1226 276.411 69.2687 276.504 69.4015C276.703 69.6937 276.889 69.9859 277.062 70.2914C277.221 70.5305 277.367 70.7696 277.513 71.0087C277.726 71.3408 277.925 71.6728 278.137 72.0182C278.217 72.151 278.297 72.2838 278.377 72.4167C278.589 72.7487 278.788 73.0941 278.987 73.4394C279.147 73.7051 279.306 73.9707 279.466 74.2364C279.559 74.3825 279.652 74.5419 279.731 74.688C279.957 75.0732 280.183 75.4584 280.395 75.8436C280.488 76.003 280.568 76.1491 280.661 76.3085C280.847 76.6405 281.033 76.9726 281.219 77.3179C281.339 77.5305 281.458 77.743 281.578 77.9555C281.75 78.261 281.91 78.5665 282.082 78.872C282.202 79.0845 282.308 79.2838 282.414 79.4963C282.587 79.8283 282.773 80.1737 282.946 80.5058C283.039 80.6917 283.132 80.8644 283.225 81.0503C283.424 81.4223 283.61 81.7942 283.796 82.1661C283.849 82.2723 283.902 82.3653 283.955 82.4716C284.181 82.8966 284.393 83.3349 284.606 83.7733C284.832 84.2249 285.044 84.6632 285.257 85.1148C285.43 85.4734 285.602 85.8454 285.775 86.204C285.881 86.4165 285.974 86.629 286.08 86.8416C286.187 87.0674 286.293 87.3064 286.399 87.5322C286.572 87.9042 286.745 88.2894 286.904 88.6613C287.037 88.9668 287.183 89.259 287.302 89.5645C287.395 89.7637 287.475 89.9497 287.555 90.1489C287.714 90.4943 287.86 90.8529 288.006 91.1982C288.126 91.4905 288.245 91.7694 288.378 92.0616C288.485 92.3273 288.591 92.5929 288.71 92.8586C289.189 94.0142 289.653 95.1697 290.092 96.3386C290.185 96.5777 290.264 96.8035 290.357 97.0293C290.477 97.3614 290.61 97.6934 290.729 98.0255C290.809 98.2513 290.902 98.4904 290.982 98.7162C291.672 100.616 292.323 102.528 292.934 104.468C293.001 104.654 293.054 104.853 293.12 105.039C293.705 106.898 294.249 108.771 294.767 110.671C294.847 110.963 294.927 111.268 295.006 111.574C295.099 111.906 295.179 112.238 295.272 112.57C295.418 113.141 295.564 113.699 295.697 114.27C296.361 116.98 296.946 119.716 297.45 122.492C297.557 123.05 297.65 123.608 297.756 124.166C297.809 124.484 297.862 124.803 297.915 125.135C297.955 125.374 297.995 125.613 298.035 125.853C298.154 126.583 298.261 127.314 298.367 128.057C298.407 128.363 298.46 128.682 298.5 128.987C298.593 129.611 298.672 130.236 298.752 130.86C298.792 131.179 298.832 131.484 298.872 131.803C298.911 132.122 298.951 132.427 298.978 132.746C299.057 133.37 299.124 134.008 299.177 134.632C299.23 135.15 299.283 135.668 299.323 136.2C299.35 136.452 299.363 136.704 299.39 136.957C299.429 137.501 299.483 138.033 299.522 138.577C299.536 138.843 299.562 139.109 299.576 139.374C299.602 139.68 299.615 139.985 299.642 140.291C299.642 140.317 299.642 140.331 299.642 140.357C299.655 140.663 299.682 140.968 299.695 141.274C299.708 141.619 299.735 141.978 299.748 142.323C299.761 142.615 299.775 142.907 299.788 143.2C299.801 143.518 299.815 143.837 299.828 144.156C299.841 144.634 299.868 145.112 299.881 145.577L299.921 145.63Z" fill="url(#paint1_linear_356_464)"/>
<path d="M147.531 199.649C179.104 199.649 204.699 174.054 204.699 142.481C204.699 110.908 179.104 85.313 147.531 85.313C115.957 85.313 90.3623 110.908 90.3623 142.481C90.3623 174.054 115.957 199.649 147.531 199.649Z" fill="#B945FF"/>
<path d="M230.596 146.247C230.596 100.368 193.404 63.1772 147.526 63.1772C101.648 63.1772 64.457 100.368 64.457 146.247C64.457 161.575 68.6145 175.933 75.8535 188.259C90.2784 212.832 116.976 229.316 147.526 229.316C166.866 229.316 184.651 222.688 198.771 211.61L202.795 212.487C213.687 214.838 223.463 228.466 230.596 237.02V146.804C230.596 146.618 230.596 146.433 230.596 146.26V146.247ZM175.128 175.96C175.672 178.922 175.26 181.326 174.118 182.734C173.308 183.73 172.166 184.221 170.744 184.221C169.323 184.221 167.849 183.73 166.162 182.814L154.247 176.278L147.898 172.798C147.765 172.732 147.633 172.732 147.566 172.798L129.303 182.893C127.616 183.81 125.995 184.301 124.654 184.301C123.232 184.301 122.09 183.81 121.28 182.814C120.138 181.326 119.726 178.935 120.204 176.039L123.644 154.734C123.711 154.668 123.644 154.522 123.578 154.455L108.821 139.565C108.754 139.499 108.754 139.419 108.688 139.419H108.622C106.257 136.949 105.248 134.478 105.925 132.433C106.603 130.387 108.754 128.899 112.128 128.408L132.544 125.233C132.676 125.167 132.743 125.087 132.809 125.021L141.908 105.615C143.462 102.441 145.414 100.674 147.5 100.674C149.585 100.674 151.617 102.441 153.092 105.615L162.257 124.955C162.323 125.087 162.39 125.167 162.522 125.167L182.938 128.209C186.245 128.7 188.463 130.108 189.141 132.233C189.818 134.279 188.809 136.816 186.378 139.286L171.621 154.389C171.555 154.455 171.555 154.522 171.555 154.668L173.959 169L175.128 175.986V175.96Z" fill="white"/>
<defs>
<linearGradient id="paint0_linear_356_464" x1="-42.3715" y1="100.252" x2="189.277" y2="213.977" gradientUnits="userSpaceOnUse">
<stop offset="0.34" stop-color="#FF6ADA"/>
<stop offset="1" stop-color="#ED1E79"/>
</linearGradient>
<linearGradient id="paint1_linear_356_464" x1="-6.14983" y1="230.715" x2="307.665" y2="-10.1245" gradientUnits="userSpaceOnUse">
<stop stop-color="#FF94C7"/>
<stop offset="0.13" stop-color="#D67AD7"/>
<stop offset="0.29" stop-color="#AD60E8"/>
<stop offset="0.43" stop-color="#904EF4"/>
<stop offset="0.56" stop-color="#7E43FC"/>
<stop offset="0.65" stop-color="#783FFF"/>
</linearGradient>
</defs>
</svg>
