<svg width="317" height="64" viewBox="0 0 317 64" fill="none" xmlns="http://www.w3.org/2000/svg">
<circle cx="32.3965" cy="32" r="32" fill="#F11978"/>
<path d="M64.3853 31.9575C64.3853 49.6308 50.0585 63.9604 32.3824 63.9604C32.235 63.9604 32.0877 63.9604 31.9403 63.9576C31.8383 63.9576 31.7363 63.9547 31.6343 63.9519C31.4699 63.9491 31.3056 63.9434 31.1441 63.9377C31.0761 63.9377 31.0081 63.9321 30.9429 63.9292C30.8069 63.9236 30.668 63.9179 30.5349 63.9094C30.4357 63.9037 30.3365 63.8981 30.2402 63.8924C30.2033 63.8924 30.1665 63.8867 30.1268 63.8839C29.2257 63.8216 28.336 63.7224 27.4575 63.5864C27.4094 63.5779 27.3612 63.5722 27.313 63.5637C27.2025 63.5467 27.0948 63.5269 26.9843 63.5099C26.9192 63.4985 26.854 63.4872 26.7916 63.4759C26.7661 63.473 26.7435 63.4674 26.718 63.4645C26.6528 63.4532 26.5876 63.4419 26.5224 63.4277C26.4573 63.4164 26.3921 63.4022 26.3269 63.3909C26.2618 63.3795 26.1966 63.3654 26.1314 63.354C26.0011 63.3285 25.8707 63.3002 25.7404 63.2747C25.6752 63.2605 25.61 63.2463 25.5449 63.2322C25.3578 63.1925 25.1736 63.15 24.9866 63.1047C24.8506 63.0735 24.7146 63.0395 24.5786 63.0055C24.5247 62.9913 24.4681 62.9772 24.4142 62.963C24.1819 62.9035 23.9467 62.8411 23.7172 62.776C23.6605 62.759 23.601 62.742 23.5443 62.7278C23.227 62.6371 22.9124 62.5408 22.5979 62.4416C22.5412 62.4246 22.4845 62.4048 22.4279 62.3878C22.3655 62.3679 22.306 62.3481 22.2437 62.3282C22.051 62.2659 21.864 62.1979 21.6741 62.1327C21.6203 62.1129 21.5665 62.0931 21.5126 62.0732C21.4531 62.0506 21.3908 62.0307 21.3313 62.0081C21.2519 61.9797 21.1754 61.9514 21.0989 61.9202C21.0564 61.9032 21.0139 61.889 20.9714 61.872C20.9261 61.855 20.8779 61.838 20.8325 61.8182C20.7702 61.7955 20.7107 61.77 20.6512 61.7474C20.4585 61.6709 20.2687 61.5943 20.076 61.515C19.9966 61.481 19.9173 61.447 19.8379 61.4158C19.7728 61.3875 19.7104 61.362 19.6481 61.3336C19.5801 61.3053 19.5149 61.2741 19.4469 61.2458C19.4044 61.226 19.3619 61.209 19.3194 61.1891C19.2429 61.1551 19.1664 61.1211 19.0899 61.0843C19.0389 61.0616 18.9879 61.039 18.9369 61.0134C18.8915 60.9936 18.8462 60.9709 18.8008 60.9511C18.713 60.9086 18.6223 60.8689 18.5345 60.8236C18.5146 60.8151 18.4976 60.8066 18.4778 60.7953C18.3985 60.7584 18.322 60.7216 18.2426 60.6819C18.1831 60.6536 18.1236 60.6224 18.0641 60.5941C18.0074 60.5657 17.9536 60.5374 17.8969 60.5091C17.8402 60.4807 17.7864 60.4524 17.7297 60.4241C17.6702 60.3929 17.6136 60.3646 17.554 60.3334C17.5087 60.3079 17.4605 60.2852 17.4152 60.2597C17.3415 60.2229 17.2707 60.1832 17.1998 60.1435C17.1403 60.1124 17.078 60.0784 17.0185 60.0444C16.9873 60.0273 16.9562 60.0104 16.9278 59.9933C16.8541 59.9537 16.7805 59.9112 16.7068 59.8687C16.6615 59.8432 16.6133 59.8148 16.5679 59.7893C16.4971 59.7497 16.4291 59.71 16.3611 59.6703C16.2676 59.6165 16.1741 59.5626 16.0834 59.5088C15.9956 59.4578 15.9077 59.404 15.8199 59.3501C15.8057 59.3416 15.7944 59.3359 15.7802 59.3274C15.6952 59.2764 15.6102 59.2226 15.5252 59.1716C15.4912 59.1489 15.4543 59.1291 15.4203 59.1064C15.341 59.0583 15.2617 59.0072 15.1851 58.9562C15.1625 58.9421 15.137 58.9279 15.1143 58.9109C15.0435 58.8656 14.9726 58.8202 14.9018 58.7749C14.8593 58.7466 14.8168 58.7182 14.7714 58.6899C14.6893 58.636 14.6099 58.5822 14.5306 58.5284C14.5136 58.517 14.4966 58.5057 14.4796 58.4944C14.3974 58.4377 14.3124 58.381 14.2302 58.3243C14.2019 58.3073 14.1764 58.2875 14.1509 58.2677C14.0772 58.2167 14.0064 58.1685 13.9355 58.1175C13.8987 58.092 13.8618 58.0665 13.8278 58.041C13.7655 57.9985 13.706 57.9531 13.6437 57.9078C13.5926 57.871 13.5445 57.837 13.4963 57.8001C13.4595 57.7718 13.4198 57.7463 13.383 57.718C13.3178 57.6726 13.2554 57.6244 13.1903 57.5763C13.1449 57.5423 13.1024 57.5083 13.0571 57.4743C13.0004 57.4318 12.9409 57.3864 12.8842 57.3439C12.8389 57.3099 12.7936 57.2731 12.7482 57.2391C12.6972 57.1994 12.6462 57.1597 12.5952 57.1172C12.5499 57.0804 12.5045 57.0464 12.4564 57.0067C12.394 56.9585 12.3345 56.9104 12.2722 56.8594C12.2467 56.8395 12.2212 56.8169 12.1957 56.797C12.1248 56.7404 12.054 56.6808 11.9832 56.6213C11.952 56.5958 11.9208 56.5675 11.8868 56.542C11.8188 56.4882 11.7536 56.4315 11.6885 56.3748C11.6545 56.3465 11.6233 56.321 11.5893 56.2898C11.5298 56.2388 11.4703 56.1878 11.4108 56.1368C11.3173 56.0546 11.2237 55.9724 11.1302 55.8903C11.0736 55.8421 11.0197 55.7911 10.963 55.7401C10.8809 55.6664 10.7959 55.5899 10.7137 55.5134C10.6599 55.4652 10.606 55.4142 10.5522 55.366C10.4615 55.281 10.3737 55.1989 10.2858 55.1139C10.2433 55.0742 10.2036 55.0345 10.164 54.9948C10.1073 54.941 10.0506 54.8843 9.99395 54.8305C9.98545 54.822 9.97978 54.8163 9.97128 54.8107C9.88627 54.7285 9.8041 54.6435 9.71909 54.5613C9.63408 54.4763 9.54907 54.3884 9.46407 54.3034C9.44423 54.2836 9.42723 54.2638 9.40739 54.2439C9.33655 54.1703 9.26288 54.0938 9.19204 54.0201C9.1042 53.9294 9.01919 53.8359 8.93134 53.7424C8.58848 53.3712 8.25128 52.9943 7.92541 52.6061C7.84324 52.5098 7.76389 52.4134 7.68172 52.3142C6.75796 51.195 5.90787 50.0077 5.1428 48.7665C5.10029 48.7014 5.06062 48.6362 5.02095 48.5682C4.89627 48.3613 4.77159 48.1545 4.64975 47.9448C4.58741 47.8343 4.52223 47.7238 4.45989 47.6133C4.40606 47.5169 4.35222 47.4206 4.29838 47.3214C4.28988 47.3044 4.27854 47.2874 4.27004 47.2704C4.21904 47.1769 4.17086 47.0862 4.11986 46.9927C4.10852 46.9729 4.10002 46.953 4.08869 46.9332C4.02918 46.8227 3.97251 46.7122 3.91584 46.6017C3.85633 46.4883 3.79966 46.375 3.74299 46.2588C3.69765 46.1681 3.65231 46.0774 3.60981 45.9868C3.5418 45.8479 3.47379 45.7091 3.40862 45.5674C3.36328 45.471 3.31795 45.3719 3.27261 45.2755C3.26127 45.2529 3.24994 45.2274 3.24144 45.2047C3.19043 45.0942 3.14226 44.9808 3.09126 44.8703C3.06575 44.8108 3.04025 44.7541 3.01475 44.6946C2.98641 44.6323 2.96091 44.57 2.93257 44.5048C2.8589 44.3319 2.78806 44.1591 2.71722 43.9834C2.69172 43.9239 2.66905 43.8644 2.64638 43.8049C2.62088 43.7454 2.59821 43.6859 2.57554 43.6264C2.52737 43.5073 2.48203 43.3855 2.43669 43.2665C2.41402 43.207 2.39135 43.1446 2.36868 43.0851C2.32335 42.9633 2.28084 42.8443 2.2355 42.7224C2.21567 42.6629 2.193 42.6006 2.17033 42.5411C2.15049 42.4787 2.12783 42.4192 2.10799 42.3569C2.08815 42.2974 2.06549 42.2351 2.04565 42.1727C2.02582 42.1104 2.00598 42.0509 1.98331 41.9885C1.96348 41.9262 1.94364 41.8667 1.9238 41.8043C1.8643 41.6202 1.80763 41.4331 1.75095 41.249C1.73112 41.1866 1.71412 41.1243 1.69428 41.0619C1.65744 40.9373 1.62061 40.8126 1.5866 40.6879C1.5526 40.5632 1.51576 40.4385 1.48176 40.311C1.46476 40.2487 1.44776 40.1863 1.43076 40.1212C1.41375 40.0588 1.39675 39.9965 1.38258 39.9313C1.36558 39.869 1.35141 39.8066 1.33441 39.7415C1.30324 39.614 1.27207 39.4893 1.2409 39.3618C1.11906 38.8545 1.01138 38.3388 0.91787 37.8231C0.869699 37.5653 0.824361 37.3046 0.78469 37.0439C0.78469 37.0439 0.78469 37.0439 0.78469 37.041C0.764855 36.9107 0.74502 36.7832 0.725184 36.6528C0.725184 36.6528 0.725184 36.6472 0.725184 36.6443C0.705349 36.5168 0.688347 36.3865 0.671345 36.259C0.626007 35.9303 0.58917 35.6016 0.555167 35.2672C0.5495 35.202 0.540999 35.134 0.535332 35.0688C0.529664 35.0008 0.523997 34.9357 0.515496 34.8705C0.509829 34.8025 0.504162 34.7373 0.498495 34.6693C0.492827 34.6013 0.48716 34.5361 0.481493 34.4681C0.475826 34.4001 0.470158 34.3349 0.467325 34.2669C0.461658 34.1989 0.458824 34.1337 0.453157 34.0657C0.444656 33.9411 0.436155 33.8135 0.430488 33.6889C0.424821 33.5812 0.419153 33.4735 0.41632 33.3658C0.41632 33.312 0.410652 33.2581 0.410652 33.2071C0.407819 33.091 0.402152 32.972 0.399318 32.8558C0.399318 32.7934 0.396484 32.7311 0.396484 32.6688C0.396484 32.6631 0.396484 32.6574 0.396484 32.6546C4.21337 36.2448 8.53747 37.8769 10.5975 38.6279C12.6717 39.3844 14.6468 39.8605 16.5538 40.1155C18.7753 40.4102 20.9034 40.4017 22.9804 40.1722C26.4884 39.7868 29.8491 38.778 33.2778 37.5567C34.6634 37.0637 36.0604 36.5366 37.4829 36.0011C39.9056 35.0915 42.3992 34.1592 45.0317 33.346C46.4966 32.8926 48.0041 32.4761 49.5654 32.119C52.6116 31.422 55.8646 30.9488 59.4179 30.8751C60.8574 30.8439 62.2516 30.8807 63.6032 30.9771C63.8639 30.9941 64.1217 31.0168 64.3768 31.0394C64.3768 31.0479 64.3768 31.0564 64.3768 31.0649C64.3768 31.1329 64.3796 31.2009 64.3824 31.2718C64.3824 31.3483 64.3853 31.4276 64.3853 31.5041C64.3853 31.5636 64.3853 31.6203 64.3853 31.6798C64.3853 31.7762 64.3853 31.8753 64.3853 31.9717V31.9575Z" fill="url(#paint0_linear_5471_18620)"/>
<path d="M64.3796 31.0678C64.1217 31.0451 63.8639 31.0253 63.606 31.0055C62.2544 30.9091 60.8602 30.8723 59.4208 30.9034C55.8674 30.9771 52.6144 31.4503 49.5683 32.1474C48.0069 32.5044 46.4995 32.921 45.0345 33.3744C42.4021 34.1876 39.9085 35.1199 37.4857 36.0295C36.0632 36.565 34.6663 37.0921 33.2806 37.5851C29.852 38.8036 26.4913 39.8152 22.9833 40.2005C20.9062 40.4301 18.7782 40.4386 16.5566 40.1439C14.6496 39.8917 12.6746 39.4128 10.6003 38.6562C8.54031 37.9053 4.2162 36.2703 0.39932 32.683C0.39932 32.6631 0.39932 32.6433 0.39932 32.6206C0.39932 32.5271 0.396486 32.4336 0.396486 32.3429C0.396486 32.2296 0.396486 32.1162 0.396486 32.0029C0.390819 14.3268 14.7176 0 32.3937 0C32.5439 0 32.6969 0 32.8471 0.00283362C32.9378 0.00283362 33.0256 0.00566724 33.1163 0.00850086C33.1446 0.00850086 33.1758 0.00850086 33.2041 0.00850086C33.2636 0.00850086 33.3203 0.0113345 33.377 0.0141681C33.394 0.0141681 33.4081 0.0141681 33.4251 0.0141681C33.4932 0.0141681 33.5612 0.0170017 33.6292 0.0226689C33.6972 0.0226689 33.7652 0.0283362 33.8332 0.0311698C33.9012 0.0340034 33.9692 0.036837 34.0372 0.0396707C34.1732 0.0453379 34.3092 0.0538388 34.4452 0.0623396C34.5133 0.0651732 34.5813 0.0708405 34.6493 0.0765077C34.7343 0.0821749 34.8193 0.0878422 34.9043 0.096343C34.9553 0.0991766 35.0035 0.104844 35.0545 0.107677C35.1083 0.110511 35.1593 0.116178 35.2132 0.121846C35.2783 0.127513 35.3435 0.13318 35.4058 0.138847C35.4427 0.141681 35.4795 0.144515 35.5135 0.150182C35.5617 0.155849 35.6127 0.158683 35.6609 0.16435C35.7941 0.178518 35.9301 0.192686 36.0632 0.206854C36.1312 0.215355 36.1964 0.221022 36.2644 0.229523C36.3324 0.238024 36.3976 0.246525 36.4656 0.255026C36.5308 0.263527 36.5988 0.272027 36.6668 0.280528C36.7348 0.289029 36.8 0.29753 36.8652 0.308864C36.9332 0.317365 36.9983 0.3287 37.0635 0.337201C37.2335 0.362703 37.4007 0.388206 37.5679 0.416542C37.6331 0.427876 37.6982 0.436377 37.7634 0.447712C37.8173 0.456213 37.8711 0.464713 37.9249 0.476048C37.9674 0.484549 38.0128 0.490216 38.0553 0.498717C38.1205 0.510051 38.1856 0.521386 38.2508 0.535554C38.316 0.546888 38.3811 0.561056 38.4463 0.572391C38.5767 0.597893 38.707 0.623396 38.8374 0.648899C38.9025 0.663067 38.9677 0.674401 39.0329 0.688569C39.098 0.702737 39.1632 0.716905 39.2284 0.731074C39.2936 0.745242 39.3587 0.75941 39.4211 0.773578C39.4863 0.787746 39.5514 0.801914 39.6138 0.818916C39.6619 0.83025 39.7101 0.841585 39.7583 0.852919C39.968 0.901091 40.1748 0.952096 40.3845 1.00593C40.4497 1.02294 40.512 1.03994 40.5772 1.05694C40.6424 1.07394 40.7047 1.09094 40.7699 1.10794C41.6653 1.35164 42.5466 1.63216 43.4108 1.9467C43.5242 1.9892 43.6375 2.0317 43.7509 2.07421C44.0597 2.19039 44.3629 2.31223 44.6661 2.43691C44.7455 2.47092 44.8248 2.50492 44.907 2.53892C44.9806 2.57009 45.0515 2.60126 45.1252 2.63243C45.1677 2.64943 45.2102 2.66927 45.2527 2.68627C45.3235 2.71744 45.3972 2.74861 45.468 2.78261C45.5275 2.80812 45.587 2.83645 45.6465 2.86195C45.6976 2.88462 45.7457 2.90729 45.7967 2.92996C45.8562 2.95546 45.9129 2.9838 45.9696 3.0093C46.0574 3.04897 46.1453 3.09148 46.2331 3.13398C46.2501 3.14248 46.2671 3.14815 46.2841 3.15665C46.3663 3.19632 46.4485 3.23599 46.5306 3.27566C46.5788 3.29833 46.627 3.32383 46.6751 3.3465C46.7375 3.37767 46.7998 3.40884 46.8622 3.44001C46.9132 3.46552 46.9613 3.49102 47.0123 3.51652C47.0634 3.54202 47.1172 3.57036 47.1682 3.59586C47.2419 3.6327 47.3155 3.67237 47.3864 3.71204C47.4147 3.72621 47.4402 3.74038 47.4686 3.75738C47.5451 3.79705 47.6216 3.83955 47.6981 3.88206C47.7491 3.91039 47.8029 3.93873 47.8539 3.96707C47.9163 4.00107 47.9786 4.03507 48.041 4.07191C48.075 4.08891 48.109 4.10875 48.1401 4.12858C48.2251 4.17675 48.3101 4.22493 48.3952 4.2731C48.4915 4.32694 48.585 4.38361 48.6785 4.44028C48.7834 4.49979 48.8854 4.56213 48.9874 4.62447C49.0837 4.68397 49.1801 4.74064 49.2764 4.80298C49.2962 4.81432 49.3132 4.82565 49.3331 4.83699C49.4294 4.89649 49.5258 4.95883 49.6221 5.02117C49.6306 5.02684 49.6391 5.03251 49.6476 5.03817C49.7071 5.07501 49.7638 5.11185 49.8205 5.15152C49.8828 5.19119 49.948 5.23369 50.0103 5.2762C50.1067 5.33854 50.2002 5.40088 50.2937 5.46605C50.3844 5.52556 50.4722 5.5879 50.5629 5.65024C50.6309 5.69557 50.6989 5.74374 50.7669 5.79192C50.8292 5.83442 50.8887 5.87692 50.9511 5.92226C51.0446 5.99027 51.1381 6.05544 51.2316 6.12628C51.3138 6.18579 51.3931 6.2453 51.4753 6.3048C52.2489 6.88003 52.9941 7.48642 53.711 8.12965C53.864 8.26567 54.0171 8.40451 54.1672 8.54336C54.2522 8.6227 54.3401 8.70204 54.4251 8.78422C54.4336 8.78989 54.4393 8.79839 54.4449 8.80405C54.5271 8.88339 54.6093 8.9599 54.6915 9.03924C54.7 9.04774 54.7085 9.05625 54.717 9.06475C54.7736 9.11858 54.8303 9.17526 54.887 9.23193C55.0117 9.35378 55.1335 9.47562 55.2525 9.59747C55.3347 9.68247 55.4197 9.76748 55.5019 9.85532C55.5047 9.85816 55.5075 9.86099 55.5104 9.86666C55.5784 9.9375 55.6464 10.0083 55.7144 10.082C55.7399 10.1075 55.7626 10.133 55.7852 10.1585C55.8249 10.201 55.8617 10.2407 55.9014 10.2832C55.9609 10.3484 56.0204 10.4107 56.0771 10.4759C56.0828 10.4816 56.0884 10.4872 56.0941 10.4957C56.1734 10.5807 56.2499 10.6686 56.3265 10.7564C56.3378 10.7706 56.352 10.7848 56.3633 10.7989C56.437 10.8811 56.5106 10.9661 56.5815 11.0483C56.5956 11.0624 56.607 11.0766 56.6183 11.0908C56.6807 11.1616 56.743 11.2353 56.8025 11.3061C56.8365 11.3458 56.8705 11.3855 56.9017 11.4251C56.9555 11.4875 57.0065 11.5498 57.0575 11.6122C57.1312 11.7 57.202 11.7879 57.2729 11.8785C57.3296 11.9494 57.3862 12.0202 57.4429 12.0882C57.4656 12.1166 57.4882 12.1449 57.5109 12.1732C57.5534 12.2271 57.5959 12.2809 57.6384 12.3347C57.6838 12.3914 57.7263 12.4481 57.7716 12.5048C57.7999 12.5416 57.8311 12.5784 57.8566 12.6181C57.9076 12.6833 57.9558 12.7484 58.004 12.8136C58.0266 12.8448 58.0493 12.876 58.0748 12.9071C58.1343 12.9865 58.1938 13.0658 58.2505 13.148C58.2618 13.1622 58.2731 13.1792 58.2845 13.1933C58.3383 13.2698 58.395 13.3463 58.4488 13.4229C58.4913 13.4824 58.531 13.539 58.5735 13.5985C58.599 13.6354 58.6245 13.6722 58.65 13.709C58.6897 13.7629 58.7265 13.8196 58.7634 13.8734C58.8002 13.9272 58.837 13.9811 58.8739 14.0321C58.9277 14.1114 58.9787 14.1879 59.0326 14.2673C59.0411 14.2786 59.0467 14.2899 59.0552 14.3013C59.1034 14.3721 59.1487 14.4401 59.1941 14.511C59.2394 14.579 59.2848 14.647 59.3273 14.7178C59.3471 14.7461 59.3641 14.7773 59.3839 14.8057C59.4264 14.868 59.4661 14.9303 59.5029 14.9955C59.5369 15.0465 59.5681 15.0975 59.5993 15.1485C59.6446 15.2194 59.6871 15.2902 59.7325 15.3639C59.7495 15.3922 59.7665 15.4206 59.7835 15.4489C59.8288 15.5197 59.8713 15.5934 59.9138 15.6671C59.9478 15.7237 59.9818 15.7804 60.0158 15.8371C60.0357 15.8683 60.0555 15.9023 60.0725 15.9334C60.1207 16.0156 60.1688 16.0978 60.2142 16.18C60.234 16.214 60.251 16.2451 60.2709 16.2791C60.3105 16.35 60.3502 16.4208 60.3899 16.4945C60.4154 16.5398 60.4409 16.5852 60.4664 16.6305C60.5032 16.6957 60.5372 16.7609 60.574 16.826C60.5995 16.8714 60.6222 16.9139 60.6449 16.9592C60.6817 17.03 60.7214 17.1037 60.7582 17.1746C60.7781 17.2142 60.7979 17.2511 60.8177 17.2907C60.8602 17.3701 60.8999 17.4494 60.9396 17.5288C60.9509 17.5514 60.9623 17.5713 60.9736 17.5939C61.0218 17.6846 61.0671 17.7781 61.1124 17.8716C61.1606 17.968 61.2059 18.0615 61.2513 18.1578C61.2881 18.2343 61.325 18.3137 61.3618 18.3902C61.3845 18.4355 61.4043 18.4809 61.427 18.5262C61.4496 18.5744 61.4723 18.6254 61.495 18.6735C61.5318 18.7529 61.5686 18.8351 61.6026 18.9144C61.631 18.9796 61.6622 19.0419 61.6877 19.1071C61.7075 19.1496 61.7245 19.1893 61.7415 19.2318C61.7755 19.3054 61.8067 19.382 61.8378 19.4556C61.8633 19.518 61.8888 19.5775 61.9172 19.6398C61.9399 19.6965 61.9625 19.7532 61.988 19.8098C62.09 20.0564 62.1892 20.3029 62.2827 20.5522C62.3026 20.6032 62.3196 20.6514 62.3394 20.6996C62.3649 20.7704 62.3932 20.8413 62.4187 20.9121C62.4357 20.9603 62.4556 21.0113 62.4726 21.0595C62.6199 21.4647 62.7588 21.8727 62.8891 22.2864C62.9033 22.3261 62.9146 22.3686 62.9288 22.4083C63.0535 22.805 63.1696 23.2045 63.2802 23.6097C63.2972 23.6721 63.3142 23.7372 63.3312 23.8024C63.351 23.8732 63.368 23.9441 63.3878 24.0149C63.419 24.1368 63.4502 24.2558 63.4785 24.3776C63.6202 24.9557 63.7449 25.5394 63.8525 26.1316C63.8752 26.2506 63.895 26.3697 63.9177 26.4887C63.9291 26.5567 63.9404 26.6247 63.9517 26.6955C63.9602 26.7465 63.9687 26.7975 63.9772 26.8485C64.0027 27.0044 64.0254 27.1602 64.0481 27.3189C64.0566 27.3841 64.0679 27.4521 64.0764 27.5173C64.0962 27.6504 64.1132 27.7836 64.1302 27.9168C64.1387 27.9848 64.1472 28.05 64.1557 28.118C64.1642 28.186 64.1727 28.2512 64.1784 28.3192C64.1954 28.4524 64.2096 28.5884 64.2209 28.7216C64.2322 28.8321 64.2436 28.9426 64.2521 29.0559C64.2578 29.1098 64.2606 29.1636 64.2663 29.2174C64.2748 29.3336 64.2861 29.447 64.2946 29.5631C64.2974 29.6198 64.3031 29.6765 64.3059 29.7332C64.3116 29.7983 64.3144 29.8635 64.3201 29.9287C64.3201 29.9343 64.3201 29.9372 64.3201 29.9428C64.3229 30.008 64.3286 30.0732 64.3314 30.1384C64.3343 30.212 64.3399 30.2885 64.3428 30.3622C64.3456 30.4246 64.3484 30.4869 64.3513 30.5492C64.3541 30.6172 64.3569 30.6853 64.3598 30.7533C64.3626 30.8553 64.3683 30.9573 64.3711 31.0565L64.3796 31.0678Z" fill="url(#paint1_linear_5471_18620)"/>
<path d="M31.8697 42.592C38.6053 42.592 44.0656 37.1317 44.0656 30.3961C44.0656 23.6605 38.6053 18.2002 31.8697 18.2002C25.1341 18.2002 19.6738 23.6605 19.6738 30.3961C19.6738 37.1317 25.1341 42.592 31.8697 42.592Z" fill="#B945FF"/>
<path d="M49.5894 31.1995C49.5894 21.4122 41.6553 13.478 31.8679 13.478C22.0806 13.478 14.1465 21.4122 14.1465 31.1995C14.1465 34.4695 15.0334 37.5326 16.5777 40.1622C19.655 45.4044 25.3506 48.9209 31.8679 48.9209C35.9937 48.9209 39.7879 47.507 42.8 45.1437L43.6586 45.3307C45.9822 45.8323 48.0677 48.7396 49.5894 50.5644V31.3185C49.5894 31.2788 49.5894 31.2392 49.5894 31.2023V31.1995ZM37.7562 37.5383C37.8724 38.1702 37.7845 38.6831 37.5408 38.9834C37.368 39.196 37.1243 39.3008 36.8211 39.3008C36.5179 39.3008 36.2034 39.196 35.8435 39.0004L33.3017 37.6063L31.9473 36.8639C31.9189 36.8497 31.8906 36.8497 31.8764 36.8639L27.9802 39.0174C27.6203 39.213 27.2746 39.3178 26.9884 39.3178C26.6852 39.3178 26.4416 39.213 26.2687 39.0004C26.025 38.6831 25.9372 38.173 26.0392 37.5553L26.7731 33.0102C26.7873 32.996 26.7731 32.9648 26.7589 32.9507L23.6108 29.7742C23.5966 29.76 23.5966 29.743 23.5824 29.743H23.5683C23.0639 29.2159 22.8485 28.6889 22.993 28.2525C23.1376 27.8161 23.5966 27.4988 24.3163 27.3939L28.6716 26.7167C28.7 26.7025 28.7141 26.6855 28.7283 26.6714L30.6693 22.5314C31.0009 21.8542 31.4174 21.4773 31.8623 21.4773C32.3071 21.4773 32.7407 21.8542 33.0552 22.5314L35.0104 26.6572C35.0246 26.6855 35.0388 26.7025 35.0671 26.7025L39.4224 27.3514C40.1279 27.4563 40.6012 27.7566 40.7457 28.21C40.8902 28.6464 40.6748 29.1876 40.1563 29.7147L37.0081 32.9365C36.994 32.9507 36.994 32.9648 36.994 32.996L37.5068 36.0535L37.7562 37.5439V37.5383Z" fill="white"/>
<path d="M81.9079 44.5L74.9305 19.5807H80.0923L84.8626 38.0566L90.06 19.5807H94.2607L99.4938 38.0566L104.264 19.5807H109.426L102.448 44.5H96.8594L92.1604 28.0533L87.4969 44.5H81.9079ZM121.566 19.5807C123.963 19.5807 125.98 20.3876 127.618 22.0015C129.255 23.6153 130.074 25.5969 130.074 27.9465C130.074 30.296 129.255 32.2777 127.618 33.8915C125.98 35.5053 123.963 36.3122 121.566 36.3122H117.187V44.5H112.275V19.5807H121.566ZM121.566 31.72C122.61 31.72 123.476 31.364 124.165 30.652C124.853 29.9163 125.197 29.0144 125.197 27.9465C125.197 26.8548 124.853 25.9529 124.165 25.241C123.476 24.529 122.61 24.173 121.566 24.173H117.187V31.72H121.566ZM141.085 44.9984C138.617 44.9984 136.541 44.4525 134.855 43.3608C133.17 42.2454 131.984 40.7384 131.296 38.8398L135.496 36.3834C136.469 38.9228 138.38 40.1925 141.228 40.1925C142.604 40.1925 143.613 39.9433 144.254 39.4449C144.894 38.9466 145.215 38.3176 145.215 37.5582C145.215 36.6801 144.823 36.0037 144.04 35.5291C143.257 35.0307 141.857 34.4967 139.839 33.9271C138.724 33.5948 137.775 33.2626 136.991 32.9303C136.232 32.5981 135.461 32.159 134.677 31.6132C133.918 31.0436 133.337 30.3316 132.933 29.4772C132.53 28.6229 132.328 27.6261 132.328 26.4869C132.328 24.2323 133.123 22.4405 134.713 21.1115C136.327 19.7587 138.261 19.0823 140.516 19.0823C142.533 19.0823 144.301 19.5807 145.82 20.5775C147.363 21.5505 148.561 22.9152 149.415 24.6714L145.286 27.0565C144.289 24.9206 142.699 23.8526 140.516 23.8526C139.495 23.8526 138.688 24.0899 138.095 24.5646C137.525 25.0155 137.241 25.6088 137.241 26.3445C137.241 27.1277 137.561 27.7685 138.202 28.2669C138.866 28.7415 140.124 29.2636 141.975 29.8332C142.735 30.0706 143.304 30.2604 143.684 30.4028C144.087 30.5215 144.621 30.7232 145.286 31.008C145.974 31.2691 146.496 31.5182 146.852 31.7556C147.232 31.9929 147.659 32.3133 148.134 32.7167C148.609 33.1202 148.965 33.5355 149.202 33.9627C149.463 34.3899 149.677 34.912 149.843 35.5291C150.033 36.1224 150.127 36.775 150.127 37.487C150.127 39.7891 149.285 41.6165 147.6 42.9692C145.939 44.322 143.767 44.9984 141.085 44.9984ZM168.77 42.2929C166.942 44.0965 164.712 44.9984 162.077 44.9984C159.443 44.9984 157.212 44.0965 155.385 42.2929C153.581 40.4655 152.679 38.2346 152.679 35.6003C152.679 32.9659 153.581 30.7469 155.385 28.9433C157.212 27.1158 159.443 26.2021 162.077 26.2021C164.712 26.2021 166.942 27.1158 168.77 28.9433C170.597 30.7469 171.511 32.9659 171.511 35.6003C171.511 38.2346 170.597 40.4655 168.77 42.2929ZM158.624 39.1246C159.55 40.0501 160.701 40.5129 162.077 40.5129C163.454 40.5129 164.605 40.0501 165.53 39.1246C166.456 38.199 166.919 37.0242 166.919 35.6003C166.919 34.1763 166.456 33.0015 165.53 32.076C164.605 31.1504 163.454 30.6876 162.077 30.6876C160.701 30.6876 159.55 31.1504 158.624 32.076C157.722 33.0015 157.271 34.1763 157.271 35.6003C157.271 37.0242 157.722 38.199 158.624 39.1246ZM183.214 44.9984C180.532 44.9984 178.29 44.0965 176.486 42.2929C174.706 40.4892 173.816 38.2583 173.816 35.6003C173.816 32.9422 174.706 30.7113 176.486 28.9077C178.29 27.104 180.532 26.2021 183.214 26.2021C184.947 26.2021 186.525 26.6175 187.949 27.4481C189.373 28.2787 190.453 29.3942 191.188 30.7944L187.237 33.1083C186.881 32.3726 186.335 31.7912 185.599 31.364C184.887 30.9368 184.08 30.7232 183.179 30.7232C181.802 30.7232 180.663 31.186 179.761 32.1116C178.859 33.0134 178.408 34.1763 178.408 35.6003C178.408 37.0005 178.859 38.1634 179.761 39.089C180.663 39.9908 181.802 40.4417 183.179 40.4417C184.104 40.4417 184.923 40.24 185.635 39.8365C186.371 39.4093 186.916 38.8279 187.272 38.0922L191.26 40.3705C190.476 41.7707 189.373 42.898 187.949 43.7524C186.525 44.5831 184.947 44.9984 183.214 44.9984ZM195.967 24.5646C195.207 24.5646 194.543 24.2917 193.973 23.7458C193.427 23.1762 193.154 22.5117 193.154 21.7523C193.154 20.9928 193.427 20.3283 193.973 19.7587C194.543 19.1891 195.207 18.9043 195.967 18.9043C196.75 18.9043 197.414 19.1891 197.96 19.7587C198.53 20.3283 198.815 20.9928 198.815 21.7523C198.815 22.5117 198.53 23.1762 197.96 23.7458C197.414 24.2917 196.75 24.5646 195.967 24.5646ZM193.688 44.5V26.7005H198.281V44.5H193.688ZM216.011 26.7005H220.604V44.5H216.011V42.3997C214.635 44.1321 212.701 44.9984 210.209 44.9984C207.835 44.9984 205.794 44.0965 204.086 42.2929C202.401 40.4655 201.558 38.2346 201.558 35.6003C201.558 32.9659 202.401 30.7469 204.086 28.9433C205.794 27.1158 207.835 26.2021 210.209 26.2021C212.701 26.2021 214.635 27.0684 216.011 28.8009V26.7005ZM207.539 39.2314C208.464 40.1569 209.639 40.6197 211.063 40.6197C212.487 40.6197 213.662 40.1569 214.587 39.2314C215.537 38.282 216.011 37.0717 216.011 35.6003C216.011 34.1288 215.537 32.9303 214.587 32.0048C213.662 31.0555 212.487 30.5808 211.063 30.5808C209.639 30.5808 208.464 31.0555 207.539 32.0048C206.613 32.9303 206.15 34.1288 206.15 35.6003C206.15 37.0717 206.613 38.282 207.539 39.2314ZM224.768 44.5V18.5128H229.36V44.5H224.768ZM248.195 19.5807H253.107V44.5H249.369L238.69 29.2636V44.5H233.777V19.5807H237.515L248.195 34.7815V19.5807ZM259.795 24.5646C259.035 24.5646 258.371 24.2917 257.801 23.7458C257.255 23.1762 256.982 22.5117 256.982 21.7523C256.982 20.9928 257.255 20.3283 257.801 19.7587C258.371 19.1891 259.035 18.9043 259.795 18.9043C260.578 18.9043 261.242 19.1891 261.788 19.7587C262.358 20.3283 262.642 20.9928 262.642 21.7523C262.642 22.5117 262.358 23.1762 261.788 23.7458C261.242 24.2917 260.578 24.5646 259.795 24.5646ZM257.516 44.5V26.7005H262.108V44.5H257.516ZM276.208 26.2021C278.154 26.2021 279.756 26.8548 281.014 28.1601C282.296 29.4654 282.936 31.2691 282.936 33.5711V44.5H278.344V34.1407C278.344 32.9541 278.024 32.0522 277.383 31.4352C276.742 30.7944 275.888 30.474 274.82 30.474C273.633 30.474 272.684 30.8419 271.972 31.5776C271.26 32.3133 270.904 33.4169 270.904 34.8883V44.5H266.312V26.7005H270.904V28.6941C272.019 27.0328 273.787 26.2021 276.208 26.2021ZM289.394 24.5646C288.611 24.5646 287.935 24.2917 287.365 23.7458C286.819 23.1762 286.546 22.5117 286.546 21.7523C286.546 20.9928 286.819 20.3283 287.365 19.7587C287.935 19.1891 288.611 18.9043 289.394 18.9043C290.154 18.9043 290.806 19.1891 291.352 19.7587C291.922 20.3283 292.207 20.9928 292.207 21.7523C292.207 22.5117 291.922 23.1762 291.352 23.7458C290.806 24.2917 290.154 24.5646 289.394 24.5646ZM287.08 44.856V26.7005H291.673V44.856C291.673 47.4666 291.032 49.3652 289.75 50.5518C288.492 51.7622 286.546 52.2843 283.912 52.1182V47.7039C285.004 47.7751 285.799 47.5852 286.297 47.1343C286.819 46.6834 287.08 45.924 287.08 44.856ZM309.389 26.7005H313.981V44.5H309.389V42.3997C308.013 44.1321 306.078 44.9984 303.587 44.9984C301.213 44.9984 299.172 44.0965 297.463 42.2929C295.778 40.4655 294.936 38.2346 294.936 35.6003C294.936 32.9659 295.778 30.7469 297.463 28.9433C299.172 27.1158 301.213 26.2021 303.587 26.2021C306.078 26.2021 308.013 27.0684 309.389 28.8009V26.7005ZM300.917 39.2314C301.842 40.1569 303.017 40.6197 304.441 40.6197C305.865 40.6197 307.04 40.1569 307.965 39.2314C308.914 38.282 309.389 37.0717 309.389 35.6003C309.389 34.1288 308.914 32.9303 307.965 32.0048C307.04 31.0555 305.865 30.5808 304.441 30.5808C303.017 30.5808 301.842 31.0555 300.917 32.0048C299.991 32.9303 299.528 34.1288 299.528 35.6003C299.528 37.0717 299.991 38.282 300.917 39.2314Z" fill="#2C2C2C"/>
<defs>
<linearGradient id="paint0_linear_5471_18620" x1="-8.64276" y1="21.3872" x2="40.7756" y2="45.6486" gradientUnits="userSpaceOnUse">
<stop offset="0.34" stop-color="#FF6ADA"/>
<stop offset="1" stop-color="#ED1E79"/>
</linearGradient>
<linearGradient id="paint1_linear_5471_18620" x1="-0.91548" y1="49.2193" x2="66.0316" y2="-2.15989" gradientUnits="userSpaceOnUse">
<stop stop-color="#FF94C7"/>
<stop offset="0.13" stop-color="#D67AD7"/>
<stop offset="0.29" stop-color="#AD60E8"/>
<stop offset="0.43" stop-color="#904EF4"/>
<stop offset="0.56" stop-color="#7E43FC"/>
<stop offset="0.65" stop-color="#783FFF"/>
</linearGradient>
</defs>
</svg>
